<svg version="1.2" xmlns="http://www.w3.org/2000/svg" viewBox="0 0 2984 1000" width="700" height="235">
	<title>bolsadecasas</title>
	<style>
		.s0 { fill: #00249c } 
	</style>
	<path id="Bolsa de Casas copy" fill-rule="evenodd" class="s0" d="m1400.4 218.7q27.1 7.8 42 29.1 14.9 21.2 14.9 52 0 47.3-32 70.5-31.9 23.1-97.1 23.1h-139.8v-326.5h126.5q68 0 98.4 20.5 30.6 20.6 30.6 65.9 0 23.8-11.1 40.7-11.2 16.6-32.4 24.7zm-127.8 117.4h49.5q25.3 0 38-10.7 12.9-10.7 12.9-32.4 0-21.2-12.7-31.7-12.6-10.7-38.2-10.7h-49.5zm0-142.8h46.6q19.9 0 30.2-8.8 10.3-8.7 10.3-25.8 0-16.8-10.3-25.6-10.3-9-30.2-9h-46.6zm348-50.7q63.2 0 98.6 34.1 35.7 34.1 35.7 94.5 0 60.4-35.7 94.5-35.4 34.1-98.6 34.1-63.5 0-99.3-34.1-35.7-34.1-35.7-94.5 0-60.4 35.7-94.5 35.8-34.1 99.3-34.1zm0 56q-26.1 0-39.9 18.8-13.5 18.6-13.5 53.8 0 35.2 13.5 54 13.8 18.6 39.9 18.6 25.6 0 39.1-18.6 13.6-18.8 13.6-54 0-35.2-13.6-53.8-13.5-18.8-39.1-18.8zm247-145.5v340.4h-78.3v-340.4zm244.3 103.1v59.5q-25.2-10.5-48.6-15.8-23.4-5.2-44.2-5.2-22.3 0-33.2 5.6-10.7 5.5-10.7 17.1 0 9.4 8.1 14.4 8.3 5.1 29.5 7.5l13.8 2q60.1 7.6 80.9 25.1 20.8 17.5 20.8 54.9 0 39.2-28.9 58.9-28.9 19.6-86.2 19.6-24.2 0-50.3-3.7-25.8-3.9-53.1-11.6v-59.5q23.4 11.4 47.9 17.1 24.7 5.7 50.1 5.7 22.9 0 34.5-6.4 11.6-6.3 11.6-18.8 0-10.5-8.1-15.5-7.9-5.3-31.7-8.1l-13.8-1.8q-52.3-6.5-73.3-24.2-21-17.7-21-53.8 0-39 26.7-57.8 26.7-18.8 81.8-18.8 21.7 0 45.5 3.3 23.9 3.3 51.9 10.3zm282.3 97.5v139.8h-79v-36.3q-15.7 22.3-35.4 32.6-19.7 10-47.9 10-38.1 0-61.9-22.1-23.6-22.3-23.6-57.7 0-43.1 29.5-63.2 29.7-20.1 93.2-20.1h46.1v-6.2q0-18.6-14.6-27.1-14.7-8.7-45.8-8.7-25.1 0-46.8 5-21.6 5-40.2 15.1v-59.7q25.1-6.2 50.5-9.2 25.4-3.3 50.8-3.3 66.2 0 95.6 26.2 29.5 26.1 29.5 84.9zm-79 29.5h-40.7q-24.5 0-36.9 8.4-12.3 8.3-12.3 24.5 0 14.8 9.9 23.4 10 8.3 27.7 8.3 22.1 0 37.2-15.8 15.1-15.9 15.1-39.8zm-998.2 474.2v-109h65.4v282.6h-65.4v-29.4q-13.5 18-29.6 26.3-16.2 8.4-37.5 8.4-37.6 0-61.7-29.8-24.2-30-24.2-77 0-47.1 24.2-76.9 24.1-29.9 61.7-29.9 21.1 0 37.3 8.5 16.3 8.4 29.8 26.2zm-42.9 131.7q20.9 0 31.8-15.3 11.1-15.3 11.1-44.3 0-29.1-11.1-44.3-10.9-15.3-31.8-15.3-20.7 0-31.8 15.3-10.9 15.2-10.9 44.3 0 29 10.9 44.3 11.1 15.3 31.8 15.3zm336.7-60.3v18.5h-152.1q2.4 22.9 16.5 34.3 14.2 11.5 39.6 11.5 20.6 0 42-6 21.6-6.2 44.3-18.6v50.2q-23 8.7-46.1 13.2-23.1 4.4-46.2 4.4-55.2 0-85.9-28-30.5-28.1-30.5-78.8 0-49.8 30-78.3 30.1-28.5 82.8-28.5 48 0 76.7 28.8 28.9 28.9 28.9 77.3zm-151.4-21.7h84.5q0-18.5-10.9-29.8-10.7-11.4-28.2-11.4-18.9 0-30.7 10.7-11.8 10.6-14.7 30.5zm524 38.4v67.6q-23.2 12-48.3 18.2-25.2 6.1-52.5 6.1-81.6 0-129.3-45.5-47.7-45.7-47.7-123.8 0-78.3 47.7-123.8 47.7-45.8 129.3-45.8 27.3 0 52.5 6.2 25.1 6.1 48.3 18.1v67.6q-23.4-15.9-46.1-23.4-22.8-7.4-47.9-7.4-45.1 0-70.9 28.9-25.8 28.8-25.8 79.6 0 50.5 25.8 79.4 25.8 28.8 70.9 28.8 25.1 0 47.9-7.4 22.7-7.4 46.1-23.4zm257.7-54.2v139.7h-79v-36.3q-15.7 22.3-35.4 32.6-19.7 10.1-47.9 10.1-38.1 0-61.9-22.1-23.6-22.3-23.6-57.8 0-43.1 29.5-63.2 29.7-20.1 93.2-20.1h46.1v-6.1q0-18.6-14.6-27.2-14.7-8.7-45.8-8.7-25.1 0-46.8 5-21.6 5.1-40.2 15.1v-59.7q25.1-6.1 50.5-9.2 25.4-3.3 50.8-3.3 66.2 0 95.6 26.3 29.5 26 29.5 84.9zm-79 29.5h-40.7q-24.5 0-36.9 8.3-12.3 8.3-12.3 24.5 0 14.9 9.9 23.4 10 8.3 27.7 8.3 22.1 0 37.2-15.7 15.1-16 15.1-39.8zm305.1-127.1v59.5q-25.1-10.5-48.5-15.8-23.4-5.2-44.2-5.2-22.3 0-33.2 5.7-10.8 5.4-10.8 17 0 9.4 8.1 14.5 8.3 5 29.6 7.4l13.7 2q60.2 7.6 81 25.1 20.7 17.5 20.7 54.9 0 39.2-28.8 58.9-28.9 19.6-86.2 19.6-24.3 0-50.3-3.7-25.8-3.9-53.2-11.6v-59.5q23.4 11.4 47.9 17.1 24.8 5.7 50.1 5.7 23 0 34.6-6.4 11.6-6.3 11.6-18.8 0-10.5-8.1-15.5-7.9-5.3-31.7-8.1l-13.8-1.7q-52.3-6.6-73.3-24.3-21-17.7-21-53.8 0-39 26.7-57.8 26.7-18.8 81.8-18.8 21.7 0 45.5 3.3 23.8 3.3 51.8 10.3zm266.7 97.5v139.8h-79v-36.3q-15.7 22.3-35.4 32.6-19.7 10-47.9 10-38.1 0-61.9-22-23.7-22.4-23.7-57.8 0-43.1 29.6-63.2 29.7-20.1 93.1-20.1h46.2v-6.2q0-18.6-14.7-27.1-14.6-8.7-45.7-8.7-25.1 0-46.8 5-21.6 5-40.2 15.1v-59.7q25.1-6.1 50.5-9.2 25.4-3.3 50.7-3.3 66.3 0 95.6 26.3 29.6 26 29.6 84.8zm-79 29.6h-40.7q-24.5 0-36.9 8.3-12.3 8.3-12.3 24.5 0 14.8 9.8 23.4 10.1 8.3 27.8 8.3 22.1 0 37.2-15.8 15.1-15.9 15.1-39.8zm305.1-127.1v59.5q-25.1-10.5-48.5-15.7-23.4-5.3-44.2-5.3-22.3 0-33.3 5.7-10.7 5.5-10.7 17.1 0 9.4 8.1 14.4 8.3 5.1 29.5 7.5l13.8 1.9q60.2 7.7 81 25.2 20.7 17.5 20.7 54.9 0 39.1-28.8 58.8-28.9 19.7-86.2 19.7-24.3 0-50.3-3.7-25.8-3.9-53.2-11.6v-59.5q23.4 11.4 47.9 17.1 24.7 5.7 50.1 5.7 23 0 34.6-6.4 11.6-6.3 11.6-18.8 0-10.5-8.1-15.5-7.9-5.3-31.8-8.1l-13.7-1.8q-52.3-6.5-73.3-24.3-21-17.7-21-53.8 0-38.9 26.7-57.7 26.7-18.8 81.8-18.8 21.6 0 45.5 3.3 23.8 3.2 51.8 10.2z"/>
</svg>